<svg width="18" height="18" viewBox="0 0 18 18" fill="none" xmlns="http://www.w3.org/2000/svg">
<path d="M13.8042 5.2758C14.4007 5.2758 14.8842 4.79227 14.8842 4.1958C14.8842 3.59933 14.4007 3.1158 13.8042 3.1158C13.2077 3.1158 12.7242 3.59933 12.7242 4.1958C12.7242 4.79227 13.2077 5.2758 13.8042 5.2758Z" fill="white"/>
<path d="M9 4.37835C8.08592 4.37835 7.19237 4.64941 6.43235 5.15724C5.67232 5.66507 5.07995 6.38688 4.73015 7.23137C4.38035 8.07587 4.28883 9.00513 4.46715 9.90164C4.64548 10.7982 5.08565 11.6217 5.732 12.268C6.37835 12.9144 7.20185 13.3545 8.09836 13.5328C8.99487 13.7112 9.92413 13.6196 10.7686 13.2698C11.6131 12.92 12.3349 12.3277 12.8428 11.5677C13.3506 10.8076 13.6217 9.91408 13.6217 9C13.6217 7.77426 13.1347 6.59873 12.268 5.732C11.4013 4.86527 10.2257 4.37835 9 4.37835ZM9 12C8.40666 12 7.82664 11.8241 7.33329 11.4944C6.83994 11.1648 6.45542 10.6962 6.22836 10.1481C6.0013 9.59987 5.94189 8.99667 6.05764 8.41473C6.1734 7.83279 6.45912 7.29824 6.87868 6.87868C7.29824 6.45912 7.83279 6.1734 8.41473 6.05764C8.99667 5.94189 9.59987 6.0013 10.1481 6.22836C10.6962 6.45542 11.1648 6.83994 11.4944 7.33329C11.8241 7.82664 12 8.40666 12 9C12 9.79565 11.6839 10.5587 11.1213 11.1213C10.5587 11.6839 9.79565 12 9 12Z" fill="white"/>
<path d="M9 1.62165C11.4031 1.62165 11.6878 1.6308 12.6368 1.67415C13.2075 1.68094 13.7728 1.78577 14.308 1.98405C14.6961 2.13381 15.0486 2.36316 15.3428 2.65732C15.6369 2.95149 15.8663 3.30398 16.016 3.6921C16.2143 4.22731 16.3191 4.79261 16.3259 5.36333C16.3692 6.3123 16.3784 6.597 16.3784 9.00007C16.3784 11.4031 16.3693 11.6878 16.3259 12.6368C16.3191 13.2075 16.2143 13.7728 16.016 14.3081C15.8663 14.6962 15.6369 15.0487 15.3428 15.3428C15.0486 15.637 14.6961 15.8663 14.308 16.0161C13.7728 16.2144 13.2075 16.3192 12.6368 16.326C11.6879 16.3693 11.4033 16.3785 9 16.3785C6.5967 16.3785 6.31215 16.3694 5.36325 16.326C4.79253 16.3192 4.22723 16.2144 3.69202 16.0161C3.3039 15.8663 2.95142 15.637 2.65725 15.3428C2.36308 15.0487 2.13374 14.6962 1.98397 14.3081C1.78569 13.7728 1.68087 13.2075 1.67408 12.6368C1.6308 11.6878 1.62157 11.4031 1.62157 9.00007C1.62157 6.597 1.63072 6.3123 1.67408 5.36333C1.68087 4.79261 1.78569 4.22731 1.98397 3.6921C2.13373 3.30396 2.36307 2.95146 2.65724 2.65728C2.95141 2.3631 3.30389 2.13375 3.69202 1.98397C4.22723 1.78569 4.79253 1.68087 5.36325 1.67408C6.31222 1.6308 6.59693 1.62165 9 1.62165ZM9 0C6.55575 0 6.24922 0.0103499 5.2893 0.0541499C4.54279 0.0691372 3.80422 0.210592 3.105 0.4725C2.50705 0.703735 1.96401 1.05735 1.51068 1.51068C1.05735 1.96401 0.703735 2.50705 0.4725 3.105C0.210551 3.80434 0.0690949 4.54304 0.0541499 5.28968C0.0103499 6.24923 0 6.55575 0 9C0 11.4443 0.0103499 11.7508 0.0541499 12.7107C0.0691036 13.4573 0.210559 14.196 0.4725 14.8954C0.703735 15.4933 1.05735 16.0364 1.51068 16.4897C1.96401 16.943 2.50705 17.2966 3.105 17.5279C3.80434 17.7898 4.54304 17.9313 5.28968 17.9462C6.24923 17.9897 6.55575 18 9 18C11.4443 18 11.7508 17.9896 12.7107 17.9459C13.4573 17.9309 14.196 17.7894 14.8954 17.5275C15.4933 17.2963 16.0364 16.9426 16.4897 16.4893C16.943 16.036 17.2966 15.493 17.5279 14.895C17.7898 14.1957 17.9313 13.457 17.9462 12.7103C17.9897 11.7508 18 11.4443 18 9C18 6.55575 17.9896 6.24922 17.9459 5.2893C17.9309 4.54279 17.7894 3.80422 17.5275 3.105C17.2962 2.50712 16.9426 1.96415 16.4893 1.51089C16.0359 1.05763 15.4929 0.704069 14.895 0.472875C14.1957 0.210934 13.457 0.0694787 12.7103 0.054525C11.7508 0.01035 11.4443 0 9 0Z" fill="white"/>
</svg>
