<svg width="22" height="22" viewBox="0 0 22 22" fill="none" xmlns="http://www.w3.org/2000/svg">
<path d="M10.9998 0.5C8.56549 0.516578 6.21257 1.37849 4.34356 2.93828C2.47455 4.49807 1.20559 6.65882 0.753754 9.05089C0.301919 11.443 0.695288 13.9177 1.86657 16.0518C3.03785 18.1858 4.91426 19.8466 7.1748 20.75C7.02287 19.7558 7.02287 18.7442 7.1748 17.75L8.4123 12.5C8.21646 12.0245 8.11949 11.5142 8.1273 11C8.1273 9.545 8.9748 8.45 10.0248 8.45C10.215 8.44714 10.4036 8.48543 10.5776 8.56224C10.7517 8.63906 10.9071 8.75258 11.0331 8.89504C11.1592 9.0375 11.253 9.20553 11.3081 9.38761C11.3632 9.5697 11.3783 9.76154 11.3523 9.95C11.3523 10.85 10.7823 12.2 10.4823 13.445C10.4177 13.6772 10.4101 13.9215 10.4599 14.1573C10.5098 14.3931 10.6157 14.6133 10.7688 14.7995C10.9218 14.9857 11.1175 15.1322 11.3391 15.2267C11.5608 15.3212 11.802 15.361 12.0423 15.3425C13.9023 15.3425 15.3423 13.37 15.3423 10.535C15.361 9.95891 15.2594 9.38525 15.044 8.85061C14.8287 8.31598 14.5042 7.8321 14.0914 7.42986C13.6786 7.02762 13.1864 6.71584 12.6464 6.51442C12.1063 6.31299 11.5302 6.22634 10.9548 6.26C10.3405 6.23361 9.72718 6.33216 9.15204 6.54966C8.5769 6.76717 8.05188 7.09912 7.60875 7.52542C7.16563 7.95172 6.81361 8.46351 6.57401 9.0298C6.33441 9.59609 6.21221 10.2051 6.2148 10.82C6.20646 11.6766 6.46895 12.5139 6.9648 13.2125C7.00086 13.2526 7.02654 13.3009 7.03962 13.3532C7.05269 13.4055 7.05275 13.4602 7.0398 13.5125C6.9573 13.8425 6.7773 14.5625 6.7473 14.705C6.7173 14.8475 6.5898 14.9375 6.3948 14.8475C5.0823 14.2325 4.2648 12.32 4.2648 10.775C4.2648 7.4675 6.6723 4.4225 11.2023 4.4225C14.8398 4.4225 17.6748 7.0175 17.6748 10.49C17.6748 14.105 15.4248 17.015 12.2223 17.015C11.7528 17.0313 11.2867 16.9301 10.8662 16.7206C10.4458 16.511 10.0844 16.1997 9.8148 15.815L9.1623 18.3125C8.84951 19.2831 8.41077 20.2085 7.8573 21.065C8.87714 21.3664 9.93644 21.513 10.9998 21.5C13.7846 21.5 16.4553 20.3938 18.4244 18.4246C20.3936 16.4555 21.4998 13.7848 21.4998 11C21.4998 8.21523 20.3936 5.54451 18.4244 3.57538C16.4553 1.60625 13.7846 0.5 10.9998 0.5Z" fill="white"/>
</svg>
