<svg width="20" height="20" viewBox="0 0 20 20" fill="none" xmlns="http://www.w3.org/2000/svg">
<path d="M18.9326 11.4102C19.0082 10.944 19.0459 10.4724 19.0451 10.0002C19.0451 7.60129 18.0922 5.30066 16.3959 3.60439C14.6996 1.90813 12.399 0.955175 10.0001 0.955175C9.52786 0.954442 9.05631 0.992065 8.59014 1.06768C7.54469 0.441429 6.31999 0.182406 5.11051 0.331741C3.90103 0.481075 2.77611 1.0302 1.91439 1.89193C1.05267 2.75365 0.503536 3.87857 0.354201 5.08805C0.204867 6.29753 0.463889 7.52223 1.09014 8.56768C1.00576 9.04064 0.960608 9.51977 0.955136 10.0002C0.955136 12.3991 1.90809 14.6997 3.60435 16.396C5.30062 18.0922 7.60125 19.0452 10.0001 19.0452C10.4724 19.0459 10.944 19.0083 11.4101 18.9327C12.4556 19.5589 13.6803 19.8179 14.8898 19.6686C16.0992 19.5193 17.2242 18.9701 18.0859 18.1084C18.9476 17.2467 19.4967 16.1218 19.6461 14.9123C19.7954 13.7028 19.5364 12.4781 18.9101 11.4327L18.9326 11.4102ZM14.2976 14.1102C13.8743 14.6955 13.2909 15.146 12.6176 15.4077C11.7869 15.7337 10.8998 15.8917 10.0076 15.8727C8.96916 15.9161 7.93603 15.7023 7.00014 15.2502C6.4545 14.9569 5.98659 14.5378 5.63514 14.0277C5.3132 13.5919 5.13023 13.0691 5.11013 12.5277C5.10934 12.3872 5.13758 12.2481 5.19308 12.119C5.24857 11.9899 5.33013 11.8737 5.43263 11.7777C5.6598 11.5843 5.95222 11.4851 6.25013 11.5002C6.4991 11.4955 6.74141 11.5807 6.93264 11.7402C7.14195 11.936 7.30359 12.1772 7.40514 12.4452C7.53525 12.7584 7.70137 13.0554 7.90014 13.3302C8.09824 13.5839 8.35584 13.7848 8.65014 13.9152C9.04988 14.0867 9.48305 14.1661 9.91763 14.1477C10.5366 14.1777 11.1497 14.0152 11.6726 13.6827C11.8733 13.5651 12.0402 13.3977 12.1572 13.1966C12.2741 12.9956 12.3371 12.7677 12.3401 12.5352C12.3466 12.3723 12.3186 12.2099 12.2578 12.0587C12.1971 11.9075 12.105 11.7708 11.9876 11.6577C11.7206 11.4116 11.3994 11.2318 11.0501 11.1327C10.6601 11.0052 10.1426 10.8777 9.49014 10.7352C8.74075 10.5607 8.00989 10.3146 7.30764 10.0002C6.75506 9.7737 6.26781 9.41278 5.89014 8.95018C5.53193 8.47336 5.34677 7.88877 5.36513 7.29268C5.35908 6.68668 5.55428 6.0958 5.92014 5.61267C6.33803 5.09349 6.89454 4.7034 7.52514 4.48767C8.32249 4.22284 9.16037 4.10096 10.0001 4.12768C10.6572 4.11605 11.3122 4.20457 11.9426 4.39018C12.4374 4.53708 12.9021 4.77071 13.3151 5.08017C13.6402 5.3243 13.9109 5.63334 14.1101 5.98767C14.2723 6.2739 14.3599 6.59626 14.3651 6.92518C14.3642 7.06539 14.3352 7.20399 14.2798 7.3328C14.2244 7.46161 14.1437 7.57803 14.0426 7.67518C13.9406 7.78577 13.8164 7.87364 13.6781 7.93308C13.5398 7.99252 13.3906 8.02219 13.2401 8.02017C12.9989 8.03895 12.7597 7.9637 12.5726 7.81018C12.3758 7.62055 12.2112 7.40017 12.0851 7.15768C11.8994 6.77542 11.6303 6.43969 11.2976 6.17517C10.8611 5.90304 10.3473 5.78183 9.83513 5.83017C9.30945 5.80801 8.78855 5.93824 8.33514 6.20517C8.17043 6.29312 8.03135 6.42227 7.93144 6.58C7.83154 6.73774 7.77424 6.91869 7.76514 7.10518C7.7592 7.30894 7.82563 7.50822 7.95264 7.66768C8.10222 7.84099 8.28608 7.98144 8.49263 8.08017C8.7126 8.19396 8.94386 8.28446 9.18264 8.35018C9.42264 8.41768 9.81263 8.51517 10.3601 8.64268C11.0501 8.79268 11.6651 8.95768 12.2276 9.13768C12.7308 9.29096 13.2103 9.51307 13.6526 9.79768C14.0385 10.0417 14.3559 10.3798 14.5751 10.7802C14.798 11.2369 14.9013 11.7427 14.8751 12.2502C14.8819 12.9153 14.6799 13.5658 14.2976 14.1102Z" fill="white"/>
</svg>
